<svg id="Layer_1" xmlns="http://www.w3.org/2000/svg" viewBox="0 0 1231 587.5"><style>.st0{fill:#050401}</style><path class="st0" d="M493.6 181.6c-6.7-23.1-7.1-45.5-1.1-67.1 6-21.6 17.1-40.6 33.2-57s35.7-28 58.8-34.7c23.1-6.7 41.4-8 55-3.8 13.5 4.2 20.5 11.9 20.8 23.1.4 5.7-.6 10.5-3 14.4-2.4 3.8-5.7 6.8-9.7 8.8-4 2-8.7 3.2-14 3.5-26.1 2.2-48.4 8.3-66.8 18.2-18.4 10-31.6 22.4-39.6 37.3-8 14.9-9.4 31.2-4.2 48.9l-29.4 8.4zM29.5 587.5c-8.5 0-15.5-2.8-21.1-8.4C2.8 573.5 0 566.5 0 558V294.2c.4-30.5 7.5-57.8 21.4-82.1s32.8-43.5 56.7-57.6c23.9-14.1 50.9-21.1 81-21.1 30.5 0 57.6 7 81.6 21.1 23.9 14.1 42.9 33.3 57 57.6 14.1 24.3 21.1 51.7 21.1 82.1 0 30.5-6.5 57.8-19.4 81.8-12.9 24.1-30.6 43.2-52.9 57.3-22.4 14.1-47.6 21.1-75.8 21.1-22.8 0-43.7-4.7-62.8-14.2-19.1-9.4-35.4-22.2-48.9-38.4V558c0 8.5-2.7 15.5-8.1 21.1-5.4 5.6-12.5 8.4-21.4 8.4zm130.1-185c19.7 0 37.3-4.7 52.8-14.2s27.7-22.4 36.8-38.9c9.1-16.4 13.6-34.9 13.6-55.4 0-20.9-4.6-39.5-13.6-56-9.1-16.4-21.4-29.4-36.8-38.9-15.5-9.5-33.1-14.2-52.8-14.2-19.3 0-36.8 4.7-52.5 14.2-15.7 9.5-27.9 22.4-36.8 38.9-8.9 16.4-13.3 35.1-13.3 56 0 20.5 4.4 39 13.3 55.4s21.2 29.4 36.8 38.9c15.6 9.5 33.1 14.2 52.5 14.2z"/><path class="st0" d="M496.6 454.8c-28.2 0-53.6-7.1-76-21.2s-40.1-33.3-53.1-57.4c-13-24.2-19.4-51.5-19.4-82.1 0-30.5 7.1-58 21.2-82.4 14.1-24.4 33.3-43.6 57.4-57.7 24.2-14.1 51.3-21.2 81.5-21.2 30.2 0 57.2 7.1 81.2 21.2s43 33.4 57.1 57.7c14.1 24.4 21.2 51.8 21.2 82.4h-22.6c0 30.6-6.5 57.9-19.4 82.1-13 24.2-30.7 43.3-53.1 57.4-22.4 14.1-47.8 21.2-76 21.2zm11.6-52.3c19.7 0 37.3-4.7 52.8-14.2s27.6-22.4 36.5-38.9c8.9-16.4 13.3-34.9 13.3-55.4 0-20.9-4.5-39.5-13.3-56-8.9-16.4-21.1-29.4-36.5-38.9-15.5-9.5-33.1-14.2-52.8-14.2-19.3 0-36.8 4.7-52.5 14.2-15.7 9.5-28 22.4-37.1 38.9-9.1 16.4-13.6 35.1-13.6 56 0 20.5 4.5 39 13.6 55.4s21.5 29.4 37.1 38.9c15.7 9.5 33.1 14.2 52.5 14.2zm130.3 50.2c-8.5 0-15.5-2.8-21.1-8.4-5.6-5.6-8.4-12.6-8.4-21.1v-88.5l11-61.3 48 20.8v129c0 8.5-2.8 15.5-8.4 21.1-5.6 5.6-12.6 8.4-21.1 8.4zm102.5-.3c-9.3 0-16.4-2.4-21.5-7.2-5-4.8-7.5-12.1-7.5-21.8V164.1c0-9.3 2.5-16.4 7.5-21.5 5-5 12.2-7.5 21.5-7.5 9.7 0 16.9 2.4 21.7 7.2 4.8 4.8 7.2 12.1 7.2 21.8v259.3c0 9.3-2.4 16.4-7.2 21.5-4.8 5-12 7.5-21.7 7.5zm-.2-198.3c0-23.2 5.7-44 17.1-62.4 11.4-18.4 26.8-33 46.1-43.8 19.3-10.8 40.6-16.2 63.8-16.2 23.2 0 40.5 3.8 51.9 11.3 11.4 7.5 15.8 16.5 13.1 27-1.2 5.4-3.4 9.6-6.7 12.5-3.3 2.9-7.1 4.7-11.3 5.5-4.3.8-8.9.6-13.9-.6-24.8-5-47-5.4-66.7-1.2-19.7 4.3-35.3 12.2-46.7 23.8-11.4 11.6-17.1 26.3-17.1 44.1h-29.6zm331.1 200c-30.1 0-57.2-7-81.3-21.1-24.1-14.1-43.2-33.3-57.3-57.6-14.1-24.3-21.1-51.7-21.1-82.1 0-30.5 6.5-57.7 19.4-81.8 12.9-24.1 30.6-43.2 52.9-57.3 22.4-14.1 47.6-21.1 75.8-21.1 22.7 0 43.8 4.7 63 14.2 19.3 9.5 35.5 22.3 48.6 38.5V29.5c0-8.9 2.8-16 8.4-21.4C1186 2.7 1193 0 1201.5 0c8.9 0 16 2.7 21.4 8.1 5.4 5.4 8.1 12.5 8.1 21.4v263.8c0 30.5-7 57.8-21.1 82.1-14.1 24.3-33.1 43.5-57 57.6-23.9 14-50.9 21.1-81 21.1zm-.4-51.6c19.7 0 37.3-4.7 52.8-14.2s27.6-22.5 36.5-39.2c8.9-16.6 13.3-35.2 13.3-55.7 0-20.9-4.5-39.4-13.3-55.7-8.9-16.2-21.1-29.1-36.5-38.6-15.5-9.5-33.1-14.2-52.8-14.2-19.3 0-36.8 4.7-52.5 14.2-15.7 9.5-28 22.3-37.1 38.6-9.1 16.2-13.6 34.8-13.6 55.7 0 20.5 4.5 39.1 13.6 55.7s21.5 29.7 37.1 39.2c15.6 9.5 33.1 14.2 52.5 14.2z"/></svg>