<svg id="a8904fed-7223-4ff2-9071-b444910320a0" xmlns="http://www.w3.org/2000/svg" viewBox="0 0 1137 518.1"><style>.st0{fill:#3f3d56}.st1{fill:#ff6584}.st2{fill:#127bd6}.st3,.st4{opacity:.1;enable-background:new}.st4{opacity:.4;fill:#127bd6}.st5{fill:#ccc}.st6{fill:#f2f2f2}</style><title>best place</title><path class="st0" d="M144.3 510.6l-2-.4c21.8-96.8 76.4-184.6 154-247.4C487 108.6 766.6 138.1 920.8 328.9c42.5 52.6 72.5 114.2 87.6 180.1l-1.9.4C960.4 307.2 783.2 166 575.5 166c-205 0-386.3 144.9-431.2 344.6z"/><circle class="st1" cx="899.6" cy="219.9" r="54.3"/><path class="st0" d="M877 437.1h2v79h-2z"/><path class="st2" d="M897.5 447.1c.1 27.6-19.3 50.1-19.3 50.1s-19.6-22.3-19.8-49.9 19.3-50.1 19.3-50.1 19.6 22.3 19.8 49.9z"/><path class="st3" d="M897.5 447.1c.1 27.6-19.3 50.1-19.3 50.1s-19.6-22.3-19.8-49.9 19.3-50.1 19.3-50.1 19.6 22.3 19.8 49.9z"/><ellipse transform="rotate(-80.781 501.027 248.734)" class="st4" cx="501" cy="248.7" rx="31.2" ry="31.2"/><circle class="st4" cx="443.2" cy="263.7" r="21.9"/><circle class="st4" cx="208.2" cy="326.7" r="21.9"/><circle class="st4" cx="856.3" cy="246.2" r="31.2"/><path class="st0" d="M56.6 507.3c1.7 6.3 7.5 10.1 7.5 10.1s3.1-6.3 1.4-12.5-7.5-10.2-7.5-10.2-3.1 6.3-1.4 12.6z"/><path class="st2" d="M59.1 505.9c4.6 4.5 5.2 11.5 5.2 11.5s-7-.4-11.6-4.9-5.2-11.5-5.2-11.5 7 .4 11.6 4.9z"/><path class="st0" d="M668.6 507.3c1.7 6.3 7.5 10.1 7.5 10.1s3.1-6.3 1.4-12.5-7.5-10.1-7.5-10.1-3.1 6.2-1.4 12.5z"/><path class="st2" d="M671.1 505.9c4.6 4.5 5.2 11.5 5.2 11.5s-7-.4-11.6-4.9-5.2-11.5-5.2-11.5 7 .4 11.6 4.9z"/><path class="st0" d="M68.1 460.2l-4.1-6.9 38.6-33.1h99.3v9.7l-35.8 38.6-41.4 8.3z"/><path class="st5" d="M219 439.6v-21.5h-13v6.8l-4.1-4.7-33.1 33.1-5.5 5.5-6.9 27.6 12.4 30.3h63.4v-62z"/><path class="st6" d="M64 453.3h104.8v63.4H64z"/><path class="st0" d="M132.3 473.3h22.1v19.3h-22.1z"/><path class="st5" d="M104 472.6h19.3v44.1H104z"/><path class="st0" d="M81.9 479.5v-6.9h-8.2v6.9h7.5zm-.7 5.5h-7.5v6.9h8.2V485zm6.2-12.4h8.3v6.9h-8.3zm0 12.4h8.3v6.9h-8.3zm111.1-4.8v-6.9h-8.3v6.9h7.6zm-.7 5.5h-7.6v6.9h8.3v-6.9zm6.2-12.4h8.3v6.9H204zm0 12.4h8.3v6.9H204zm263.1-25.5l-4.1-6.9 38.6-33.1h99.3v9.7l-35.8 38.6-41.4 8.3z"/><path class="st5" d="M618 439.6v-21.5h-13v6.8l-4.1-4.7-33.1 33.1-5.5 5.5-6.9 27.6 12.4 30.3h63.4v-62z"/><path class="st6" d="M463 453.3h104.8v63.4H463z"/><path class="st0" d="M531.3 473.3h22.1v19.3h-22.1z"/><path class="st5" d="M503 472.6h19.3v44.1H503z"/><path class="st0" d="M480.9 479.5v-6.9h-8.2v6.9h7.5zm-.7 5.5h-7.5v6.9h8.2V485zm6.2-12.4h8.3v6.9h-8.3zm0 12.4h8.3v6.9h-8.3zm111.1-4.8v-6.9h-8.3v6.9h7.6zm-.7 5.5h-7.6v6.9h8.3v-6.9zm6.2-12.4h8.3v6.9H603zm0 12.4h8.3v6.9H603zM280.5 344.4l-6.9-5.6 38.6-34.4h97.9v30.3l-63.4 42.8z"/><path class="st5" d="M428 323.7v-18.6h-13v4.5l-4.9-5.2-31.7 34.4-12.4 8.3-19.2 140.6 29 29h67.4V340.2z"/><path class="st6" d="M273.6 338.8h104.8v177.9H273.6z"/><path class="st5" d="M314.3 473.3h19.3v43.4h-19.3z"/><path class="st0" d="M293.6 485.7v-6.9h-8.3v6.9h7.6zm-.7 5.5h-7.6v6.9h8.3v-6.9zm6.2-12.4h8.3v6.9h-8.3zm0 12.4h8.3v6.9h-8.3zm51.1-5.5v-6.9h-8.3v6.9h7.6zm-.7 5.5h-7.6v6.9h8.3v-6.9zm6.2-12.4h8.3v6.9h-8.3zm0 12.4h8.3v6.9h-8.3zm52.4-143.4v-6.9h-8.3v6.9h7.6zm-.7 5.5h-7.6v6.9h8.3v-6.9zm6.2-12.4h8.3v6.9h-8.3zm0 12.4h8.3v6.9h-8.3zm-5.5 33.1v-6.9h-8.3v6.9h7.6zm-.7 5.5h-7.6v6.9h8.3v-6.9zm6.2-12.4h8.3v6.9h-8.3zm0 12.4h8.3v6.9h-8.3zm-5.5 33.1v-6.9h-8.3v6.9h7.6zm-.7 5.6h-7.6v6.8h8.3v-6.8zm6.2-12.5h8.3v6.9h-8.3zm0 12.5h8.3v6.9h-8.3zm-5.5 33.1v-6.9h-8.3v6.9h7.6zm-.7 5.5h-7.6v6.9h8.3v-6.9zm6.2-12.4h8.3v6.9h-8.3zm0 12.4h8.3v6.9h-8.3zM285.3 347.8h80v16.5h-80zm0 33.1h80v16.5h-80zm0 33.1h80v16.5h-80zm0 33.1h80v16.5h-80zm398.2-102.7l-6.9-5.6 38.6-34.4h97.9v30.3l-63.4 42.8z"/><path class="st5" d="M831 323.7v-18.6h-13v4.5l-4.9-5.2-31.7 34.4-12.4 8.3-19.2 140.6 29 29h67.4V340.2z"/><path class="st6" d="M676.6 338.8h104.8v177.9H676.6z"/><path class="st5" d="M717.3 473.3h19.3v43.4h-19.3z"/><path class="st0" d="M696.6 485.7v-6.9h-8.3v6.9h7.6zm-.7 5.5h-7.6v6.9h8.3v-6.9zm6.2-12.4h8.3v6.9h-8.3zm0 12.4h8.3v6.9h-8.3zm51.1-5.5v-6.9h-8.3v6.9h7.6zm-.7 5.5h-7.6v6.9h8.3v-6.9zm6.2-12.4h8.3v6.9h-8.3zm0 12.4h8.3v6.9h-8.3zm52.4-143.4v-6.9h-8.3v6.9h7.6zm-.7 5.5h-7.6v6.9h8.3v-6.9zm6.2-12.4h8.3v6.9h-8.3zm0 12.4h8.3v6.9h-8.3zm-5.5 33.1v-6.9h-8.3v6.9h7.6zm-.7 5.5h-7.6v6.9h8.3v-6.9zm6.2-12.4h8.3v6.9h-8.3zm0 12.4h8.3v6.9h-8.3zm-5.5 33.1v-6.9h-8.3v6.9h7.6zm-.7 5.6h-7.6v6.8h8.3v-6.8zm6.2-12.5h8.3v6.9h-8.3zm0 12.5h8.3v6.9h-8.3zm-5.5 33.1v-6.9h-8.3v6.9h7.6zm-.7 5.5h-7.6v6.9h8.3v-6.9zm6.2-12.4h8.3v6.9h-8.3zm0 12.4h8.3v6.9h-8.3zM688.3 347.8h80v16.5h-80zm0 33.1h80v16.5h-80zm0 33.1h80v16.5h-80zm0 33.1h80v16.5h-80zm216.2-102.7l-6.9-5.6 38.6-34.4h97.9v30.3l-63.4 42.8z"/><path class="st5" d="M1052 323.7v-18.6h-13v4.5l-4.9-5.2-31.7 34.4-12.4 8.3-19.2 140.6 29 29h67.4V340.2z"/><path class="st6" d="M897.6 338.8h104.8v177.9H897.6z"/><path class="st5" d="M938.3 473.3h19.3v43.4h-19.3z"/><path class="st0" d="M917.6 485.7v-6.9h-8.3v6.9h7.6zm-.7 5.5h-7.6v6.9h8.3v-6.9zm6.2-12.4h8.3v6.9h-8.3zm0 12.4h8.3v6.9h-8.3zm51.1-5.5v-6.9h-8.3v6.9h7.6zm-.7 5.5h-7.6v6.9h8.3v-6.9zm6.2-12.4h8.3v6.9h-8.3zm0 12.4h8.3v6.9h-8.3zm52.4-143.4v-6.9h-8.3v6.9h7.6zm-.7 5.5h-7.6v6.9h8.3v-6.9zm6.2-12.4h8.3v6.9h-8.3zm0 12.4h8.3v6.9h-8.3zm-5.5 33.1v-6.9h-8.3v6.9h7.6zm-.7 5.5h-7.6v6.9h8.3v-6.9zm6.2-12.4h8.3v6.9h-8.3zm0 12.4h8.3v6.9h-8.3zm-5.5 33.1v-6.9h-8.3v6.9h7.6zm-.7 5.6h-7.6v6.8h8.3v-6.8zm6.2-12.5h8.3v6.9h-8.3zm0 12.5h8.3v6.9h-8.3zm-5.5 33.1v-6.9h-8.3v6.9h7.6zm-.7 5.5h-7.6v6.9h8.3v-6.9zm6.2-12.4h8.3v6.9h-8.3zm0 12.4h8.3v6.9h-8.3zM909.3 347.8h80v16.5h-80zm0 33.1h80v16.5h-80zm0 33.1h80v16.5h-80zm0 33.1h80v16.5h-80zM0 516.1h1137v2H0zm252-79h2v79h-2z"/><path class="st2" d="M272.5 447.1c.1 27.6-19.3 50.1-19.3 50.1s-19.6-22.3-19.8-49.9 19.3-50.1 19.3-50.1 19.6 22.3 19.8 49.9z"/><path class="st0" d="M452 437.1h2v79h-2z"/><path class="st2" d="M472.5 447.1c.1 27.6-19.3 50.1-19.3 50.1s-19.6-22.3-19.8-49.9 19.3-50.1 19.3-50.1 19.6 22.3 19.8 49.9z"/><path class="st0" d="M851 437.1h2v79h-2z"/><path class="st2" d="M871.5 447.1c.1 27.6-19.3 50.1-19.3 50.1s-19.6-22.3-19.8-49.9 19.3-50.1 19.3-50.1 19.6 22.3 19.8 49.9z"/><ellipse class="st2" cx="587.5" cy="163.5" rx="38" ry="8.6"/><path class="st2" d="M630.5 44c0 24.3-44 93-44 93s-44-68.7-44-93 19.7-44 44-44 44 19.7 44 44z"/><circle class="st6" cx="586.5" cy="44" r="25"/><path class="st2" d="M190.4 431.6H94l1.7-5.2h100z"/><path class="st2" d="M190.4 431.6H94l1.7-5.2h100zm-11 11H83l1.7-5.2h100z"/><circle class="st2" cx="71.3" cy="436.2" r="26.9"/><circle class="st3" cx="71.3" cy="436.2" r="23.1"/><path class="st6" d="M70.2 449.8v-3.4c-1.7 0-3.5-.6-4.5-1.5l.7-2.2c1.2.9 2.7 1.4 4.2 1.4 2.1 0 3.5-1.4 3.5-3.3 0-1.8-1.1-3-3.3-4-3-1.3-4.8-2.9-4.8-5.8 0-2.8 1.7-4.9 4.4-5.4v-3.4h1.8v3.2c1.4 0 2.7.4 3.8 1.2l-.7 2.2c-1.1-.7-2.4-1.1-3.7-1.1-2.3 0-3.1 1.5-3.1 2.9 0 1.7 1.1 2.6 3.6 3.8 3 1.4 4.5 3.1 4.5 6.1 0 2.6-1.6 5.1-4.6 5.7v3.5h-1.8z"/></svg>